<?xml version="1.0" ?><svg viewBox="0 0 64 64" xmlns="http://www.w3.org/2000/svg"><title/><g data-name="19" id="_19"><path d="M51,55.2H13a3.76,3.76,0,0,1-3.75-3.75V15.11A3.75,3.75,0,0,1,13,11.36H51a3.75,3.75,0,0,1,3.75,3.75V51.45A3.76,3.76,0,0,1,51,55.2ZM13,12.86a2.25,2.25,0,0,0-2.25,2.25V51.45A2.25,2.25,0,0,0,13,53.7H51a2.25,2.25,0,0,0,2.25-2.25V15.11A2.25,2.25,0,0,0,51,12.86Z"/><path d="M23,15.42a.76.76,0,0,1-.75-.75V9.55a.75.75,0,1,1,1.5,0v5.12A.76.76,0,0,1,23,15.42Z"/><path d="M41,15.42a.76.76,0,0,1-.75-.75V9.55a.75.75,0,1,1,1.5,0v5.12A.76.76,0,0,1,41,15.42Z"/><path d="M19,15.42a.76.76,0,0,1-.75-.75V9.55a.75.75,0,0,1,1.5,0v5.12A.76.76,0,0,1,19,15.42Z"/><path d="M45,15.42a.76.76,0,0,1-.75-.75V9.55a.75.75,0,1,1,1.5,0v5.12A.76.76,0,0,1,45,15.42Z"/><path d="M20,25H15.75a.75.75,0,0,1-.75-.75V20a.75.75,0,0,1,.75-.75H20a.75.75,0,0,1,.75.75v4.24A.75.75,0,0,1,20,25Zm-3.5-1.5h2.75V20.75H16.5Z"/><path d="M20,37.47H15.75a.76.76,0,0,1-.75-.75V32.47a.76.76,0,0,1,.75-.75H20a.76.76,0,0,1,.75.75v4.25A.76.76,0,0,1,20,37.47ZM16.5,36h2.75V33.22H16.5Z"/><path d="M20,49.56H15.75a.76.76,0,0,1-.75-.75V44.56a.76.76,0,0,1,.75-.75H20a.76.76,0,0,1,.75.75v4.25A.76.76,0,0,1,20,49.56Zm-3.5-1.5h2.75V45.31H16.5Z"/><path d="M34.12,25H29.88a.74.74,0,0,1-.75-.75V20a.74.74,0,0,1,.75-.75h4.24a.74.74,0,0,1,.75.75v4.24A.74.74,0,0,1,34.12,25Zm-3.49-1.5h2.74V20.75H30.63Z"/><path d="M48.12,37.47H43.88a.75.75,0,0,1-.75-.75V32.47a.75.75,0,0,1,.75-.75h4.24a.75.75,0,0,1,.75.75v4.25A.75.75,0,0,1,48.12,37.47ZM44.63,36h2.74V33.22H44.63Z"/><path d="M34.12,49.56H29.88a.75.75,0,0,1-.75-.75V44.56a.75.75,0,0,1,.75-.75h4.24a.75.75,0,0,1,.75.75v4.25A.75.75,0,0,1,34.12,49.56Zm-3.49-1.5h2.74V45.31H30.63Z"/><path d="M48.25,25H44a.75.75,0,0,1-.75-.75V20a.75.75,0,0,1,.75-.75h4.25A.75.75,0,0,1,49,20v4.24A.75.75,0,0,1,48.25,25Zm-3.5-1.5H47.5V20.75H44.75Z"/><path d="M48.25,49.56H44a.76.76,0,0,1-.75-.75V44.56a.76.76,0,0,1,.75-.75h4.25a.76.76,0,0,1,.75.75v4.25A.76.76,0,0,1,48.25,49.56Zm-3.5-1.5H47.5V45.31H44.75Z"/><path d="M34.4,38.92a.73.73,0,0,1-.35-.09l-2-1.08L30,38.83A.75.75,0,0,1,28.86,38l.39-2.29-1.66-1.62a.74.74,0,0,1-.19-.76.76.76,0,0,1,.61-.52l2.29-.33,1-2.08a.78.78,0,0,1,1.34,0l1,2.08,2.29.33a.76.76,0,0,1,.61.52.74.74,0,0,1-.19.76l-1.66,1.62L35.14,38a.75.75,0,0,1-.3.73A.71.71,0,0,1,34.4,38.92ZM32,36.15a.73.73,0,0,1,.35.09l1.06.55-.21-1.17a.76.76,0,0,1,.22-.67l.85-.83L33.09,34a.76.76,0,0,1-.56-.41L32,32.47l-.53,1.07a.76.76,0,0,1-.56.41l-1.18.17.85.83a.76.76,0,0,1,.22.67l-.21,1.17,1.06-.55A.73.73,0,0,1,32,36.15Z"/></g></svg>